<svg width="400" height="400" viewBox="0 0 400 400" fill="none" xmlns="http://www.w3.org/2000/svg">
<circle cx="200" cy="200" r="200" fill="url(#paint0_linear)"/>
<path d="M84.0915 271.058L138.188 321.19L130.415 329.577C128.03 332.151 123.435 331.771 120.152 328.729L77.9447 289.615C74.6615 286.572 73.9334 282.02 76.3184 279.446L84.0915 271.058Z" fill="white"/>
<path d="M242.577 100.037L255.656 112.156L97.1699 283.178L84.0915 271.058L242.577 100.037Z" fill="white"/>
<path d="M295.33 88.2899L302.349 103.82L249.398 115.78L242.379 100.25L295.33 88.2899Z" fill="white"/>
<path d="M304.537 96.8215L288.518 91.0028L280.616 144.709L296.634 150.528L304.537 96.8215Z" fill="white"/>
<path d="M283.596 138.048L296.674 150.168L138.188 321.19L125.11 309.07L283.596 138.048Z" fill="white"/>
<path d="M293.685 88.6609C298.946 87.4971 304.895 93.0099 304.134 98.3439L302.029 113.102C301.302 118.2 294.933 119.321 290.426 115.144L277.975 103.606C273.468 99.429 274.101 92.9933 279.129 91.881L293.685 88.6609Z" fill="white"/>
<defs>
<linearGradient id="paint0_linear" x1="74.5" y1="34" x2="316.5" y2="369" gradientUnits="userSpaceOnUse">
<stop stop-color="#3A91E2"/>
<stop offset="1" stop-color="#02529C"/>
</linearGradient>
</defs>
</svg>
